<?xml version="1.0" encoding="utf-8"?>
<!-- Generator: Adobe Illustrator 24.0.3, SVG Export Plug-In . SVG Version: 6.00 Build 0)  -->
<svg version="1.1" id="レイヤー_1" xmlns="http://www.w3.org/2000/svg" xmlns:xlink="http://www.w3.org/1999/xlink" x="0px"
	 y="0px" viewBox="0 0 200 200" style="enable-background:new 0 0 200 200;" xml:space="preserve">
<style type="text/css">
	.st0{fill:#F0F0F0;}
	.st1{fill:#B2B2B2;}
</style>
<rect class="st0" width="200" height="200"/>
<g>
	<path class="st1" d="M54.5,82.4c0,0.1,0,0.1-0.1,0.1c-0.1,0-0.6,0-2.1,0H48v2.1h1.2c1.5,0,2,0,2.1,0c0.1,0,0.1,0,0.1,0.1
		c0,0.1,0,0.5,0,1.8v3.4c0,1.2,0,1.7,0,1.8c0,0.1,0,0.1-0.1,0.1c-0.1,0-0.6,0-2.1,0h-3.3c-1.5,0-2,0-2,0c-0.1,0-0.1,0-0.1-0.1
		c0-0.1,0-0.5,0-1.8v-3.4c0-1.2,0-1.7,0-1.8c0-0.1,0-0.1,0.1-0.1c0.1,0,0.6,0,2,0H47v-2.1H43c-1.5,0-2,0-2.1,0c-0.1,0-0.1,0-0.1-0.1
		v-0.7c0-0.1,0-0.1,0.1-0.1c0.1,0,0.6,0,2.1,0h9.2c1.5,0,2,0,2.1,0c0.1,0,0.1,0,0.1,0.1L54.5,82.4L54.5,82.4z M53.1,86.4
		c0-0.8,0-1.5-0.1-1.9c0.5,0,0.8,0.1,1.1,0.1c0.1,0,0.2,0.1,0.2,0.2c0,0.1,0,0.1-0.1,0.2c-0.1,0.1-0.1,0.4-0.1,1.5v5.5
		c0,2.1,0,3,0,3.1c0,0.1,0,0.1-0.1,0.1h-0.7c-0.1,0-0.1,0-0.1-0.1v-0.8H42.1V95c0,0.1,0,0.1-0.1,0.1h-0.7c-0.1,0-0.1,0-0.1-0.1
		c0-0.1,0-1,0-3v-5.5c0-0.9,0-1.5-0.1-1.9c0.4,0,0.6,0.1,1,0.1c0.1,0,0.2,0.1,0.2,0.2c0,0.1-0.1,0.2-0.1,0.3
		c-0.1,0.2-0.1,0.5-0.1,1.4v6.8h11.1L53.1,86.4L53.1,86.4z M47,85.4h-2.4v2.3H47V85.4z M47,88.4h-2.4v2.5H47V88.4z M50.4,85.4H48
		v2.3h2.5V85.4z M50.4,88.4H48v2.5h2.5V88.4z"/>
	<path class="st1" d="M58.1,88.5c0-0.6,0-1.6,0-2.4c-0.4,0.7-0.9,1.4-1.4,2c-0.1,0.1-0.1,0.2-0.2,0.2c-0.1,0-0.1-0.1-0.2-0.2
		c-0.1-0.3-0.3-0.4-0.4-0.6c1.5-1.7,2.5-3.5,3.2-5.6c0.1-0.4,0.2-0.8,0.2-1.1c0.4,0.1,0.6,0.2,0.9,0.3c0.1,0.1,0.2,0.1,0.2,0.2
		c0,0.1,0,0.2-0.1,0.2c-0.1,0.1-0.2,0.3-0.3,0.6c-0.3,0.8-0.6,1.6-1,2.3v8.1c0,1.7,0,2.4,0,2.5c0,0.1,0,0.1-0.1,0.1h-0.7
		c-0.1,0-0.1,0-0.1-0.1c0-0.1,0-0.8,0-2.5V88.5z M66.7,87.5c0.2,0.9,0.5,1.7,0.9,2.5c0.5-0.4,0.9-0.8,1.3-1.1
		c0.2-0.2,0.4-0.4,0.5-0.7c0.3,0.2,0.5,0.3,0.7,0.5c0.1,0.1,0.2,0.1,0.2,0.2S70.2,89,70.1,89c-0.1,0.1-0.3,0.2-0.5,0.4
		c-0.5,0.4-1,0.8-1.6,1.2c0.8,1.1,1.8,2,3,2.8c-0.2,0.2-0.3,0.3-0.5,0.6c-0.1,0.1-0.1,0.2-0.2,0.2c-0.1,0-0.1-0.1-0.2-0.1
		c-2.1-1.6-3.5-3.5-4.3-6.6h-0.7c-0.3,0.2-0.5,0.4-0.8,0.6c1.4,1.3,2,3.1,2,4.6c0,1.5-0.5,2.4-1.5,2.4c-0.4,0-0.7,0-1-0.1
		c-0.3,0-0.3,0-0.4-0.3c0-0.2-0.1-0.5-0.2-0.7c0.5,0.1,0.9,0.1,1.4,0.1c0.5,0,0.8-0.3,0.8-1.6c0-0.3,0-0.6-0.1-1
		c-1.4,1.2-3,2.1-5,2.7c-0.3,0.1-0.3,0.1-0.4-0.1c-0.1-0.3-0.3-0.4-0.4-0.5c2.2-0.6,4.2-1.6,5.6-2.9c-0.1-0.3-0.2-0.6-0.4-0.9
		c-1.3,1-2.6,1.7-4.3,2.2c-0.3,0.1-0.3,0.1-0.4-0.1c-0.1-0.2-0.2-0.3-0.4-0.5c2-0.6,3.5-1.3,4.7-2.3c-0.2-0.3-0.4-0.5-0.7-0.7
		c-1,0.7-2,1.1-3.2,1.5c-0.3,0.1-0.3,0.1-0.4-0.1c-0.1-0.2-0.2-0.3-0.4-0.5c1.8-0.4,3.1-1.1,4.2-1.9h-0.6c-1.5,0-2.2,0-2.2,0
		c-0.1,0-0.1,0-0.1-0.1c0-0.1,0-0.4,0-1.1v-1.1c-0.2,0.2-0.5,0.3-0.7,0.5c-0.1,0.1-0.2,0.1-0.2,0.1c-0.1,0-0.1-0.1-0.2-0.2
		c-0.1-0.2-0.2-0.3-0.4-0.4c1.6-1,2.7-2.3,3.3-3.4c0.2-0.4,0.3-0.7,0.4-1c0.4,0.1,0.6,0.2,0.8,0.3c0.1,0.1,0.2,0.1,0.2,0.2
		s-0.1,0.2-0.2,0.2c-0.1,0.1-0.3,0.3-0.5,0.6l-0.1,0.1h2.6c0.2,0,0.3,0,0.3-0.1c0.1,0,0.1,0,0.1,0c0.1,0,0.2,0,0.4,0.3
		c0.2,0.2,0.3,0.3,0.3,0.3c0,0.1-0.1,0.2-0.2,0.2c-0.1,0.1-0.3,0.2-0.4,0.4c-0.2,0.3-0.5,0.6-0.8,1h1.3c1.5,0,2.1,0,2.2,0
		c0.1,0,0.1,0,0.1,0.1c0,0.1,0,0.3,0,1.1v0.8c0,0.7,0,0.9,0,1c0,0.1,0,0.1-0.1,0.1c-0.1,0-0.7,0-2.2,0
		C67.4,87.5,66.7,87.5,66.7,87.5z M64.8,85.1h-3v1.7h3V85.1z M63,83c-0.3,0.4-0.7,0.9-1.2,1.4H65c0.5-0.5,0.8-0.9,1.1-1.4H63z
		 M68.8,85.1h-3.2v1.7h3.2V85.1z"/>
	<path class="st1" d="M77.5,83.2c0.1-0.6,0.2-1,0.1-1.5c0.5,0.1,0.8,0.2,1.2,0.4c0.2,0.1,0.2,0.3,0.1,0.4c-0.1,0.1-0.2,0.3-0.3,0.5
		c-0.2,0.8-0.4,1.5-0.7,2.3c0.5-0.1,1.2-0.1,1.6-0.1c1.4,0,2.1,0.7,2.1,2.6c0,2.1-0.3,4-0.9,5.1c-0.4,0.9-1,1.3-1.8,1.3
		c-0.7,0-1.2-0.1-1.6-0.3c-0.1-0.1-0.2-0.1-0.2-0.3c0-0.3-0.1-0.6-0.2-1c0.7,0.3,1.3,0.4,1.9,0.4c0.5,0,0.8-0.2,1.1-0.8
		c0.4-0.9,0.7-2.5,0.7-4.5c0-1.2-0.2-1.7-1.1-1.7c-0.5,0-1.2,0.1-1.7,0.2c-0.9,2.8-2,5.3-3.3,7.6c-0.1,0.1-0.2,0.1-0.3,0.1
		c-0.2-0.1-0.5-0.3-0.6-0.4c-0.1-0.1-0.1-0.2,0-0.3c1.3-2.3,2.3-4.5,3.1-6.8c-0.7,0.1-1.3,0.2-2.1,0.3c-0.3,0.1-0.6,0.1-0.7,0.2
		c-0.2,0.1-0.3,0.1-0.4-0.1c-0.1-0.3-0.3-0.6-0.4-1.1c0.6,0,1.2,0,1.7-0.1c0.9-0.1,1.5-0.2,2.3-0.3C77.1,84.8,77.3,84.1,77.5,83.2z
		 M83.3,84.5c0.1,0,0.2,0,0.2,0.1c1.1,1,2.1,2.3,2.6,3.9c0,0.1,0.1,0.2-0.1,0.3c-0.2,0.1-0.5,0.3-0.7,0.4c-0.1,0.1-0.2,0.1-0.3-0.1
		c-0.5-1.6-1.3-3-2.6-4.1C82.8,84.9,83.1,84.7,83.3,84.5z M83.6,82.1c0.1-0.1,0.1,0,0.2,0c0.6,0.4,1.3,1.2,1.8,1.9
		c0.1,0.1,0,0.1,0,0.2l-0.5,0.4c-0.1,0.1-0.2,0.1-0.2,0c-0.5-0.8-1.1-1.5-1.9-2.1L83.6,82.1z M85,81c0.1-0.1,0.1-0.1,0.2,0
		c0.6,0.5,1.4,1.2,1.8,1.9c0.1,0.1,0,0.1-0.1,0.2l-0.4,0.4c-0.1,0.1-0.1,0.1-0.2,0c-0.4-0.7-1.1-1.4-1.8-2L85,81z"/>
	<path class="st1" d="M94.7,81.7c0.1,0.1,0.2,0.1,0.2,0.2s0,0.1-0.1,0.2c-0.1,0.1-0.2,0.3-0.2,0.6c-0.1,0.3-0.1,0.7-0.2,1
		c1.4-0.1,2.8-0.3,4.4-0.7c0.1,0,0.2,0,0.2,0.1c0.1,0.2,0.1,0.4,0.1,0.6c0,0.1-0.1,0.2-0.2,0.2c-1.9,0.4-3.2,0.6-4.7,0.7
		c-0.1,0.8-0.1,1.5-0.2,2.3c0.8-0.2,2-0.4,2.9-0.4c0.2-0.4,0.3-0.8,0.3-1.3c0.4,0.1,0.7,0.3,0.9,0.4c0.1,0.1,0.2,0.2,0.2,0.3
		c0,0.1-0.1,0.2-0.2,0.3c-0.1,0.2-0.2,0.3-0.2,0.4c2.3,0.3,3.6,1.8,3.6,3.7c0,2.5-2.2,3.8-4.6,4.3c-0.2,0.1-0.3,0-0.4-0.2
		c-0.1-0.2-0.3-0.4-0.6-0.6c1.1-0.2,2.4-0.7,3.1-1.2c0.7-0.5,1.4-1.2,1.4-2.6c0-1.7-1.3-2.6-2.8-2.8c-0.9,1.8-2,3.3-3.1,4.4
		c0.1,0.3,0.2,0.6,0.3,0.9c0.1,0.1,0,0.2-0.1,0.2c-0.2,0.1-0.4,0.3-0.6,0.3c-0.1,0-0.2,0-0.2-0.1c-0.1-0.2-0.2-0.5-0.3-0.8
		c-1.2,0.9-2.3,1.4-3,1.4c-1.1,0-1.4-0.8-1.4-1.6c0-1.6,1.3-3.6,3.8-4.8c0-0.9,0.1-1.8,0.1-2.6c-0.9,0.1-1.5,0.1-2,0.1
		c-0.3,0-0.6,0-0.8-0.1c-0.1,0-0.2-0.1-0.2-0.2c0-0.2-0.1-0.4-0.1-0.7c1,0.1,2,0.1,3.1,0c0.1-0.6,0.1-1,0.1-1.4c0-0.5,0-0.8-0.1-1.1
		C93.9,81.5,94.4,81.6,94.7,81.7z M90.3,92c0,0.4,0.2,0.8,0.7,0.8c0.6,0,1.4-0.4,2.5-1.2c-0.2-1-0.3-2.1-0.3-3.2
		C91.2,89.3,90.3,90.8,90.3,92z M96.7,87.3c-0.8,0-1.9,0.2-2.7,0.5c0,1.1,0.1,2,0.3,3C95,90.1,96.1,88.4,96.7,87.3z"/>
	<path class="st1" d="M107.7,82c0.1,0.1,0.2,0.1,0.2,0.2c0,0.1,0,0.2-0.1,0.2c-0.1,0.2-0.2,0.3-0.3,0.6c-0.3,1.5-0.4,2.8-0.5,3.7
		c0,0.6,0,1.3,0.1,1.8c0.3-0.7,0.8-1.6,1.2-2.3c0.1,0.3,0.2,0.5,0.3,0.7c0.1,0.2,0.1,0.3,0,0.4c-0.4,0.7-0.8,1.5-1,2.1
		c-0.1,0.3-0.1,0.4-0.1,0.5c0,0.1,0,0.2-0.1,0.2c-0.1,0-0.5,0.1-0.8,0.1c-0.1,0-0.1-0.1-0.2-0.2c-0.2-0.7-0.4-1.8-0.4-3
		c0-1,0.2-2.5,0.4-3.8c0.1-0.7,0.2-1.2,0.1-1.8C107,81.7,107.4,81.8,107.7,82z M112.7,81.8c0.2,0.1,0.3,0.2,0.2,0.3
		c-0.1,0.2-0.1,0.4,0,0.8c0.1,1.8,0.2,3.1,0.2,4.2c0,2.3-0.4,4-1.3,5.2c-0.6,0.9-1.5,1.7-2.6,2.3c-0.2,0.1-0.3,0.1-0.4,0
		c-0.2-0.2-0.5-0.4-0.8-0.4c1.3-0.7,2.1-1.3,2.8-2.2c0.9-1.2,1.3-2.6,1.3-4.8c0-1.1-0.1-2.6-0.2-3.8c-0.1-0.8-0.2-1.2-0.3-1.7
		C112,81.7,112.4,81.8,112.7,81.8z"/>
	<path class="st1" d="M122.5,88.4c-1.2,0.1-2.5,0.1-3.7-0.1c-0.1,0-0.2-0.1-0.2-0.2c0-0.2-0.1-0.6-0.1-0.8c1.2,0.1,2.6,0.2,3.9,0.1
		c0-0.8,0-1.6,0-2.4c-1.6,0.1-2.9,0.1-4.2-0.1c-0.1,0-0.1-0.1-0.1-0.2c0-0.2-0.1-0.5-0.1-0.8c1.4,0.2,2.9,0.2,4.4,0.1
		c0-0.7,0-1.1,0-1.7c0-0.5-0.1-0.7-0.1-1.1c0.5,0.1,1,0.1,1.3,0.2c0.2,0.1,0.2,0.2,0.1,0.4c-0.1,0.2-0.2,0.4-0.2,0.7
		c0,0.5,0,0.9-0.1,1.4c1.5-0.1,2.8-0.3,3.9-0.5c0.1,0,0.2,0,0.2,0.1c0,0.3,0.1,0.5,0.1,0.7c0,0.1-0.1,0.2-0.1,0.2
		c-1.2,0.2-2.5,0.4-4,0.5c0,0.8,0,1.6,0,2.4c1.2-0.1,2.3-0.2,3.5-0.5c0.1,0,0.2,0,0.2,0.1c0,0.2,0,0.5,0,0.8c0,0.1-0.1,0.1-0.2,0.2
		c-1.1,0.2-2.3,0.3-3.5,0.4c0,1,0.1,1.8,0.1,2.8c1.4,0.4,2.9,1.1,4.3,2.1c0.1,0.1,0.1,0.1,0.1,0.3c-0.1,0.2-0.2,0.5-0.4,0.7
		c-0.1,0.1-0.1,0.1-0.2,0.1c-1.3-1-2.4-1.6-3.7-2c0,1.8-0.9,2.5-2.9,2.5c-1.9,0-2.8-0.7-2.8-1.9c0-1,1.1-1.9,2.9-1.9
		c0.6,0,1.2,0.1,1.7,0.1C122.5,90,122.5,89.3,122.5,88.4z M120.9,91.7c-1.3,0-2,0.4-2,1c0,0.7,0.6,1,1.8,1c0.7,0,1.3-0.2,1.6-0.5
		c0.2-0.2,0.3-0.6,0.3-1.3C122,91.8,121.4,91.7,120.9,91.7z"/>
	<path class="st1" d="M140.2,82.8c0-0.5,0-0.9-0.1-1.3c0.6,0.1,1,0.1,1.2,0.2c0.2,0.1,0.2,0.1,0.2,0.2c0,0.1-0.1,0.2-0.1,0.3
		c-0.1,0.1-0.1,0.3-0.1,0.6c0,1,0,1.8-0.1,2.7c1.2-0.1,2.2-0.2,3.3-0.2c0.1,0,0.2,0,0.2,0.2c0,0.2,0,0.5,0,0.7c0,0.1,0,0.2-0.2,0.2
		c-1.1,0-2.2,0.1-3.3,0.1c-0.1,1-0.1,2-0.2,2.6c-0.2,1.2-0.7,1.6-1.7,1.6c-0.4,0-0.8-0.1-1.2-0.1c-0.1,0-0.2-0.1-0.2-0.3
		c0-0.3-0.1-0.6-0.3-0.9c0.6,0.2,1.1,0.3,1.6,0.3c0.5,0,0.7-0.3,0.8-0.9c0.1-0.6,0.1-1.5,0.2-2.2c-1.5,0.1-3.1,0.3-4.6,0.5
		c0,1.7-0.1,3.2,0,4.1c0.1,1.3,0.5,1.7,2.9,1.7c1.3,0,2.7-0.1,3.9-0.3c0.2,0,0.2,0,0.3,0.1c0,0.2,0.1,0.6,0.1,0.8
		c0,0.2,0,0.2-0.1,0.2c-0.9,0.1-2.4,0.2-3.9,0.2c-3.1,0-3.9-0.6-4.1-2.5c-0.1-0.7-0.1-2.4-0.1-4.2c-0.9,0.1-1.5,0.2-2.3,0.4
		c-0.2,0.1-0.5,0.1-0.7,0.2c-0.2,0.1-0.3,0-0.3-0.1c-0.1-0.3-0.2-0.6-0.3-1c0.4,0,0.8,0,1.2-0.1c0.9-0.1,1.6-0.3,2.4-0.4
		c0-0.6,0-1.2,0-1.8c0-0.7,0-1-0.2-1.6c0.5,0,0.9,0.1,1.3,0.2c0.1,0,0.2,0.1,0.2,0.2c0,0.1-0.1,0.2-0.1,0.3
		c-0.1,0.2-0.1,0.4-0.1,0.7c0,0.7,0,1.2-0.1,1.7c1.4-0.2,3.1-0.4,4.6-0.5C140.2,84.6,140.2,83.6,140.2,82.8z"/>
	<path class="st1" d="M149.6,89.3c0.7-0.7,1.5-1.2,2.3-1.2c1.6,0,2.1,1.2,2.3,2.8c0.1,1.4,0.4,2.2,1.3,2.2c0.9,0,1.5-0.5,2.1-1.1
		c0.5-0.6,1-1.4,1.3-2.6c0.2,0.4,0.4,0.7,0.6,0.8c0.1,0.1,0.1,0.2,0.1,0.4c-0.3,0.8-0.7,1.6-1.3,2.2c-0.7,0.8-1.6,1.4-2.8,1.4
		c-1.5,0-2.1-0.9-2.3-2.9c-0.2-1.6-0.5-2.2-1.4-2.2c-0.7,0-1.4,0.4-2.2,1.4c-0.5,0.7-1.2,1.9-2,3.5c-0.1,0.2-0.1,0.2-0.3,0.1
		c-0.2-0.1-0.5-0.3-0.7-0.4c-0.1-0.1-0.1-0.2,0-0.3c2.1-4,3.8-7.4,4.9-9.8c0.4-0.9,0.5-1.3,0.6-1.8c0.4,0.2,0.9,0.4,1.1,0.6
		c0.2,0.1,0.2,0.3,0,0.5c-0.1,0.1-0.3,0.3-0.5,0.7C151.6,85.6,150.5,87.6,149.6,89.3L149.6,89.3z"/>
</g>
<g>
	<g>
		<path class="st1" d="M32,117.6v-11.3h1.4c1.9,2.8,6.1,8.8,6.7,10h0c-0.1-1.6-0.1-3.2-0.1-5.1v-4.9h1v11.3h-1.3
			c-1.7-2.5-6-8.9-6.8-10.2h0c0.1,1.4,0.1,3.1,0.1,5.1v5L32,117.6L32,117.6z"/>
		<path class="st1" d="M51,113.6c0,2.2-1.3,4.2-3.8,4.2c-2.3,0-3.8-1.9-3.8-4.2c0-2.3,1.4-4.2,3.8-4.2C49.5,109.4,51,111.2,51,113.6
			z M44.4,113.6c0,1.8,1,3.3,2.8,3.3c1.8,0,2.8-1.4,2.8-3.3c0-1.8-1-3.3-2.8-3.3C45.3,110.3,44.4,111.8,44.4,113.6z"/>
		<path class="st1" d="M58.7,106.3v11.3h-1.1v-11.3H58.7z"/>
		<path class="st1" d="M61.6,111.7c0-0.7,0-1.4,0-2.1h1c0,0.3,0,0.9,0,1.4c0.4-0.8,1.1-1.6,2.5-1.6c1.2,0,2,0.6,2.4,1.6
			c0.4-0.8,1.2-1.6,2.7-1.6c1.3,0,2.6,0.8,2.6,3v5.2h-1v-5.1c0-1-0.4-2.2-1.8-2.2c-1.5,0-2.2,1.1-2.2,2.8v4.5h-1v-5.1
			c0-1.1-0.3-2.2-1.8-2.2c-1.6,0-2.3,1.3-2.3,3v4.4h-1L61.6,111.7L61.6,111.7z"/>
		<path class="st1" d="M81.3,115.9c0,0.7,0.1,1.4,0.1,1.7h-0.9c-0.1-0.2-0.1-0.7-0.1-1.2c-0.3,0.7-1.1,1.4-2.8,1.4
			c-2,0-2.8-1.3-2.8-2.5c0-1.9,1.5-2.6,3.9-2.6c0.8,0,1.4,0,1.7,0v-0.7c0-0.8-0.3-1.8-2.1-1.8c-1.6,0-1.9,0.8-2.1,1.5h-1
			c0.1-1,0.7-2.4,3.1-2.4c2.1,0,3.1,1,3.1,2.6V115.9z M80.3,113.6c-0.3,0-0.9,0-1.7,0c-1.8,0-2.9,0.4-2.9,1.8c0,0.9,0.7,1.7,1.9,1.7
			c2.3,0,2.7-1.5,2.7-3.1L80.3,113.6C80.3,113.6,80.3,113.6,80.3,113.6z"/>
		<path class="st1" d="M90.6,116.8c0,2.7-1,4.3-3.7,4.3c-2.4,0-3.2-1.4-3.4-2.5h1c0.3,1,1.1,1.6,2.4,1.6c2.2,0,2.7-1.4,2.7-3.5V116
			c-0.4,1-1.3,1.6-2.8,1.6c-2,0-3.5-1.6-3.5-4c0-2.7,1.7-4.2,3.6-4.2c1.7,0,2.4,0.8,2.7,1.4c0-0.4,0-1,0.1-1.2h0.9
			c0,0.5,0,1.6,0,2.3L90.6,116.8L90.6,116.8z M84.3,113.6c0,1.9,1.1,3.2,2.6,3.2c1.9,0,2.7-1.2,2.7-3.3c0-2.1-0.8-3.2-2.6-3.2
			C85.2,110.3,84.3,111.8,84.3,113.6z"/>
		<path class="st1" d="M93.6,113.8c0,1.9,1.1,3.2,2.7,3.2c1.4,0,2-0.7,2.4-1.5h1c-0.4,1.1-1.3,2.3-3.4,2.3c-2.5,0-3.6-2.1-3.6-4.2
			c0-2.4,1.3-4.3,3.7-4.3c2.7,0,3.5,2.2,3.5,3.8c0,0.2,0,0.4,0,0.5L93.6,113.8C93.6,113.8,93.6,113.8,93.6,113.8z M98.8,113
			c0-1.4-0.8-2.7-2.5-2.7c-1.7,0-2.4,1.1-2.6,2.7H98.8z"/>
		<path class="st1" d="M107.7,113.8l-1.5,3.8h-1.1l4.4-11.3h1.2l4.6,11.3h-1.2l-1.5-3.8H107.7z M112.4,112.9c-1.3-3.3-2-4.8-2.2-5.6
			h0c-0.3,0.8-1,2.8-2.1,5.6H112.4z"/>
		<path class="st1" d="M117,109.6c1,2.8,2.3,6.1,2.6,7.1h0c0.2-0.6,0.9-2.7,2.7-7.1h1l-3.2,8h-1.1l-3.1-8H117z"/>
		<path class="st1" d="M130.9,115.9c0,0.7,0.1,1.4,0.1,1.7h-0.9c-0.1-0.2-0.1-0.7-0.1-1.2c-0.3,0.7-1.1,1.4-2.8,1.4
			c-2,0-2.8-1.3-2.8-2.5c0-1.9,1.5-2.6,3.9-2.6c0.8,0,1.4,0,1.7,0v-0.7c0-0.8-0.3-1.8-2.1-1.8c-1.6,0-1.9,0.8-2.1,1.5h-1
			c0.1-1,0.7-2.4,3.1-2.4c2.1,0,3.1,1,3.1,2.6L130.9,115.9L130.9,115.9z M130,113.6c-0.3,0-0.9,0-1.7,0c-1.8,0-2.9,0.4-2.9,1.8
			c0,0.9,0.7,1.7,1.9,1.7c2.3,0,2.7-1.5,2.7-3.1L130,113.6C130,113.6,130,113.6,130,113.6z"/>
		<path class="st1" d="M133.6,105.7h1v1.6h-1V105.7z M133.6,109.6h1v8h-1V109.6z"/>
		<path class="st1" d="M137.2,117.6v-11.9h1v11.9H137.2z"/>
		<path class="st1" d="M146.8,115.9c0,0.7,0.1,1.4,0.1,1.7h-0.9c-0.1-0.2-0.1-0.7-0.1-1.2c-0.3,0.7-1.1,1.4-2.8,1.4
			c-2,0-2.8-1.3-2.8-2.5c0-1.9,1.5-2.6,3.9-2.6c0.8,0,1.4,0,1.7,0v-0.7c0-0.8-0.3-1.8-2.1-1.8c-1.6,0-1.9,0.8-2.1,1.5h-1
			c0.1-1,0.7-2.4,3.1-2.4c2.1,0,3.1,1,3.1,2.6V115.9z M145.8,113.6c-0.3,0-0.9,0-1.7,0c-1.9,0-2.9,0.4-2.9,1.8
			c0,0.9,0.7,1.7,1.9,1.7c2.3,0,2.7-1.5,2.7-3.1L145.8,113.6C145.8,113.6,145.8,113.6,145.8,113.6z"/>
		<path class="st1" d="M149.4,105.7h1v5.2c0.4-0.7,1.2-1.5,2.8-1.5c2,0,3.5,1.7,3.5,4.1c0,2.6-1.4,4.4-3.6,4.4
			c-1.5,0-2.3-0.6-2.7-1.5c0,0.5,0,1,0,1.3h-1c0-0.9,0-1.8,0-2.8L149.4,105.7C149.4,105.7,149.4,105.7,149.4,105.7z M155.7,113.5
			c0-1.8-0.9-3.2-2.6-3.2c-2,0-2.7,1.3-2.7,3.3c0,1.9,0.8,3.3,2.7,3.3C154.8,116.9,155.7,115.5,155.7,113.5z"/>
		<path class="st1" d="M158.7,117.6v-11.9h1v11.9H158.7z"/>
		<path class="st1" d="M162.7,113.8c0,1.9,1.1,3.2,2.7,3.2c1.4,0,2-0.7,2.4-1.5h1c-0.4,1.1-1.3,2.3-3.4,2.3c-2.5,0-3.6-2.1-3.6-4.2
			c0-2.4,1.3-4.3,3.7-4.3c2.7,0,3.5,2.2,3.5,3.8c0,0.2,0,0.4,0,0.5L162.7,113.8L162.7,113.8z M167.9,113c0-1.4-0.8-2.7-2.5-2.7
			c-1.7,0-2.4,1.1-2.6,2.7H167.9z"/>
	</g>
</g>
</svg>
